<?xml version="1.0" encoding="UTF-8"?>
<svg width="752pt" height="752pt" version="1.1" viewBox="0 0 752 752" xmlns="http://www.w3.org/2000/svg">
 <g>
  <path d="m474.66 297.07h-197.32c-5.4492 0-9.8672 4.418-9.8672 9.8672s4.418 9.8672 9.8672 9.8672h197.32c5.4492 0 9.8672-4.418 9.8672-9.8672s-4.418-9.8672-9.8672-9.8672z"/>
  <path d="m474.66 366.14h-197.32c-5.4492 0-9.8672 4.4141-9.8672 9.8633s4.418 9.8672 9.8672 9.8672h197.32c5.4492 0 9.8672-4.418 9.8672-9.8672s-4.418-9.8633-9.8672-9.8633z"/>
  <path d="m484.53 445.07c0-2.6172-1.0391-5.1289-2.8906-6.9766-1.8516-1.8516-4.3594-2.8906-6.9766-2.8906h-197.32c-5.4492 0-9.8672 4.418-9.8672 9.8672 0 5.4492 4.418 9.8633 9.8672 9.8633h197.32c2.6172 0 5.125-1.0391 6.9766-2.8867 1.8516-1.8516 2.8906-4.3594 2.8906-6.9766z"/>
 </g>
</svg>
